<svg width="25" height="25" viewBox="0 0 25 25" fill="none" xmlns="http://www.w3.org/2000/svg">
<path d="M4.35522 19.5V17.5H6.35522V10.5C6.35522 9.11667 6.77189 7.89167 7.60522 6.825C8.43856 5.74167 9.52189 5.03333 10.8552 4.7V4C10.8552 3.58333 10.9969 3.23333 11.2802 2.95C11.5802 2.65 11.9386 2.5 12.3552 2.5C12.7719 2.5 13.1219 2.65 13.4052 2.95C13.7052 3.23333 13.8552 3.58333 13.8552 4V4.7C15.1886 5.03333 16.2719 5.74167 17.1052 6.825C17.9386 7.89167 18.3552 9.11667 18.3552 10.5V17.5H20.3552V19.5H4.35522ZM12.3552 22.5C11.8052 22.5 11.3302 22.3083 10.9302 21.925C10.5469 21.525 10.3552 21.05 10.3552 20.5H14.3552C14.3552 21.05 14.1552 21.525 13.7552 21.925C13.3719 22.3083 12.9052 22.5 12.3552 22.5ZM8.35522 17.5H16.3552V10.5C16.3552 9.4 15.9636 8.45833 15.1802 7.675C14.3969 6.89167 13.4552 6.5 12.3552 6.5C11.2552 6.5 10.3136 6.89167 9.53022 7.675C8.74689 8.45833 8.35522 9.4 8.35522 10.5V17.5Z" fill="#49454F"/>
</svg>
