<svg width="115" height="80" viewBox="0 0 115 80" fill="none" xmlns="http://www.w3.org/2000/svg">
<g clip-path="url(#clip0_54_3770)">
<path d="M61.3333 18V22M53.3333 18V22M48.3333 26H66.3333M50.3333 20H64.3333C65.4379 20 66.3333 20.8954 66.3333 22V36C66.3333 37.1046 65.4379 38 64.3333 38H50.3333C49.2287 38 48.3333 37.1046 48.3333 36V22C48.3333 20.8954 49.2287 20 50.3333 20Z" stroke="currentColor" stroke-width="2" stroke-linecap="round" stroke-linejoin="round"/>
</g>
<path d="M29.6458 60H27.806L27.8177 58.7344H29.6458C30.1419 58.7344 30.5579 58.625 30.8939 58.4062C31.2298 58.1836 31.4837 57.8652 31.6556 57.4512C31.8275 57.0332 31.9134 56.5332 31.9134 55.9512V55.5117C31.9134 55.0625 31.8646 54.666 31.7669 54.3223C31.6693 53.9785 31.5247 53.6895 31.3333 53.4551C31.1458 53.2207 30.9134 53.043 30.6361 52.9219C30.3587 52.8008 30.0404 52.7402 29.681 52.7402H27.7708V51.4688H29.681C30.2513 51.4688 30.7708 51.5645 31.2396 51.7559C31.7122 51.9473 32.1204 52.2227 32.4642 52.582C32.8118 52.9375 33.0775 53.3633 33.2611 53.8594C33.4486 54.3555 33.5423 54.9102 33.5423 55.5234V55.9512C33.5423 56.5605 33.4486 57.1152 33.2611 57.6152C33.0775 58.1113 32.8118 58.5371 32.4642 58.8926C32.1204 59.248 31.7103 59.5215 31.2337 59.7129C30.7572 59.9043 30.2279 60 29.6458 60ZM28.7083 51.4688V60H27.097V51.4688H28.7083ZM38.7884 58.6523V55.7285C38.7884 55.5137 38.7513 55.3281 38.6771 55.1719C38.6029 55.0156 38.4896 54.8945 38.3372 54.8086C38.1849 54.7227 37.9915 54.6797 37.7572 54.6797C37.5501 54.6797 37.3685 54.7148 37.2122 54.7852C37.0599 54.8555 36.9427 54.9551 36.8607 55.084C36.7786 55.209 36.7376 55.3535 36.7376 55.5176H35.1849C35.1849 55.2559 35.2474 55.0078 35.3724 54.7734C35.4974 54.5352 35.6751 54.3242 35.9056 54.1406C36.14 53.9531 36.4193 53.8066 36.7435 53.7012C37.0716 53.5957 37.4388 53.543 37.8451 53.543C38.3255 53.543 38.7533 53.625 39.1283 53.7891C39.5072 53.9492 39.804 54.1914 40.0189 54.5156C40.2376 54.8398 40.347 55.248 40.347 55.7402V58.5059C40.347 58.8223 40.3665 59.0938 40.4056 59.3203C40.4486 59.543 40.5111 59.7363 40.5931 59.9004V60H39.0169C38.9427 59.8398 38.8861 59.6367 38.847 59.3906C38.8079 59.1406 38.7884 58.8945 38.7884 58.6523ZM39.0052 56.1387L39.0169 57.0586H38.0384C37.7962 57.0586 37.5833 57.084 37.3997 57.1348C37.2161 57.1816 37.0658 57.252 36.9486 57.3457C36.8314 57.4355 36.7435 57.5449 36.6849 57.6738C36.6263 57.7988 36.597 57.9414 36.597 58.1016C36.597 58.2578 36.6322 58.3984 36.7025 58.5234C36.7767 58.6484 36.8822 58.748 37.0189 58.8223C37.1595 58.8926 37.3236 58.9277 37.5111 58.9277C37.7845 58.9277 38.0228 58.873 38.2259 58.7637C38.429 58.6504 38.5872 58.5137 38.7005 58.3535C38.8138 58.1934 38.8743 58.041 38.8822 57.8965L39.3275 58.5645C39.2728 58.7246 39.1908 58.8945 39.0814 59.0742C38.972 59.2539 38.8314 59.4219 38.6595 59.5781C38.4876 59.7344 38.2806 59.8633 38.0384 59.9648C37.7962 60.0664 37.515 60.1172 37.1947 60.1172C36.7845 60.1172 36.4173 60.0352 36.0931 59.8711C35.7689 59.707 35.513 59.4824 35.3255 59.1973C35.138 58.9121 35.0443 58.5879 35.0443 58.2246C35.0443 57.8887 35.1068 57.5918 35.2318 57.334C35.3568 57.0762 35.5423 56.8594 35.7884 56.6836C36.0345 56.5039 36.3392 56.3691 36.7025 56.2793C37.0697 56.1855 37.4896 56.1387 37.9622 56.1387H39.0052ZM45.7279 58.2656C45.7279 58.1328 45.6927 58.0137 45.6224 57.9082C45.5521 57.8027 45.4193 57.707 45.224 57.6211C45.0326 57.5312 44.7513 57.4473 44.3802 57.3691C44.0521 57.2988 43.7493 57.2109 43.472 57.1055C43.1947 57 42.9564 56.873 42.7572 56.7246C42.5579 56.5723 42.4017 56.3945 42.2884 56.1914C42.179 55.9844 42.1243 55.7461 42.1243 55.4766C42.1243 55.2148 42.181 54.9688 42.2943 54.7383C42.4076 54.5039 42.5716 54.2988 42.7865 54.123C43.0013 53.9434 43.263 53.8027 43.5716 53.7012C43.8802 53.5957 44.2279 53.543 44.6146 53.543C45.1536 53.543 45.6165 53.6309 46.0033 53.8066C46.3939 53.9824 46.6927 54.2246 46.8997 54.5332C47.1068 54.8379 47.2103 55.1816 47.2103 55.5645H45.6634C45.6634 55.3965 45.6243 55.2441 45.5462 55.1074C45.472 54.9707 45.3568 54.8613 45.2005 54.7793C45.0443 54.6934 44.847 54.6504 44.6087 54.6504C44.3939 54.6504 44.2122 54.6855 44.0638 54.7559C43.9193 54.8262 43.8099 54.918 43.7357 55.0312C43.6615 55.1445 43.6243 55.2695 43.6243 55.4062C43.6243 55.5078 43.6439 55.5996 43.6829 55.6816C43.7259 55.7598 43.7943 55.832 43.888 55.8984C43.9818 55.9648 44.1087 56.0254 44.2689 56.0801C44.4329 56.1348 44.6341 56.1875 44.8724 56.2383C45.3451 56.332 45.7572 56.457 46.1087 56.6133C46.4642 56.7656 46.7415 56.9688 46.9408 57.2227C47.14 57.4766 47.2396 57.8008 47.2396 58.1953C47.2396 58.4766 47.179 58.7344 47.0579 58.9688C46.9368 59.1992 46.7611 59.4004 46.5306 59.5723C46.3001 59.7441 46.0247 59.8789 45.7044 59.9766C45.3841 60.0703 45.0228 60.1172 44.6204 60.1172C44.0384 60.1172 43.5462 60.0137 43.1439 59.8066C42.7415 59.5957 42.4368 59.3301 42.2298 59.0098C42.0228 58.6855 41.9193 58.3496 41.9193 58.002H43.4017C43.4134 58.248 43.4798 58.4453 43.6009 58.5938C43.722 58.7422 43.8743 58.8496 44.0579 58.916C44.2454 58.9785 44.4427 59.0098 44.6497 59.0098C44.8841 59.0098 45.0814 58.9785 45.2415 58.916C45.4017 58.8496 45.5228 58.7617 45.6048 58.6523C45.6868 58.5391 45.7279 58.4102 45.7279 58.2656ZM50.4349 51V60H48.8822V51H50.4349ZM50.1888 56.6016H49.7318C49.7318 56.1602 49.7904 55.7539 49.9076 55.3828C50.0247 55.0117 50.1908 54.6895 50.4056 54.416C50.6204 54.1387 50.8763 53.9238 51.1732 53.7715C51.474 53.6191 51.806 53.543 52.1693 53.543C52.4818 53.543 52.765 53.5879 53.0189 53.6777C53.2767 53.7637 53.4974 53.9023 53.681 54.0938C53.8646 54.2852 54.0052 54.5352 54.1029 54.8438C54.2044 55.1484 54.2552 55.5195 54.2552 55.957V60H52.6966V55.9453C52.6966 55.6523 52.6536 55.4219 52.5677 55.2539C52.4818 55.082 52.3587 54.959 52.1986 54.8848C52.0423 54.8105 51.849 54.7734 51.6185 54.7734C51.3685 54.7734 51.1536 54.8223 50.974 54.9199C50.7943 55.0137 50.6458 55.1445 50.5286 55.3125C50.4154 55.4805 50.3294 55.6738 50.2708 55.8926C50.2161 56.1113 50.1888 56.3477 50.1888 56.6016ZM56.1146 51H57.6673V58.5996L57.515 60H56.1146V51ZM61.7454 56.7656V56.8887C61.7454 57.3613 61.6927 57.7949 61.5872 58.1895C61.4857 58.584 61.3314 58.9258 61.1243 59.2148C60.9173 59.5 60.6595 59.7227 60.3509 59.8828C60.0462 60.0391 59.6888 60.1172 59.2786 60.1172C58.888 60.1172 58.5482 60.041 58.2591 59.8887C57.974 59.7363 57.7337 59.5215 57.5384 59.2441C57.3431 58.9629 57.1868 58.6328 57.0697 58.2539C56.9525 57.8711 56.8646 57.4531 56.806 57V56.666C56.8646 56.209 56.9525 55.791 57.0697 55.4121C57.1868 55.0332 57.3431 54.7031 57.5384 54.4219C57.7337 54.1406 57.974 53.9238 58.2591 53.7715C58.5443 53.6191 58.8802 53.543 59.2669 53.543C59.681 53.543 60.0423 53.623 60.3509 53.7832C60.6634 53.9395 60.9212 54.1621 61.1243 54.4512C61.3314 54.7363 61.4857 55.0762 61.5872 55.4707C61.6927 55.8613 61.7454 56.293 61.7454 56.7656ZM60.1927 56.8887V56.7656C60.1927 56.4961 60.1712 56.2422 60.1283 56.0039C60.0853 55.7617 60.015 55.5488 59.9173 55.3652C59.8197 55.1816 59.6868 55.0371 59.5189 54.9316C59.3509 54.8262 59.14 54.7734 58.8861 54.7734C58.6439 54.7734 58.4368 54.8145 58.265 54.8965C58.097 54.9785 57.9564 55.0918 57.8431 55.2363C57.7337 55.3809 57.6478 55.5508 57.5853 55.7461C57.5267 55.9414 57.4876 56.1523 57.4681 56.3789V57.293C57.4954 57.5938 57.5599 57.8652 57.6615 58.1074C57.763 58.3457 57.9134 58.5352 58.1126 58.6758C58.3158 58.8164 58.5775 58.8867 58.8978 58.8867C59.1478 58.8867 59.3568 58.8379 59.5247 58.7402C59.6927 58.6387 59.8255 58.498 59.9232 58.3184C60.0208 58.1348 60.0892 57.9219 60.1283 57.6797C60.1712 57.4375 60.1927 57.1738 60.1927 56.8887ZM63.0951 56.8945V56.7715C63.0951 56.3066 63.1615 55.8789 63.2943 55.4883C63.4271 55.0938 63.6204 54.752 63.8743 54.4629C64.1283 54.1738 64.4388 53.9492 64.806 53.7891C65.1732 53.625 65.5911 53.543 66.0599 53.543C66.5365 53.543 66.9583 53.625 67.3255 53.7891C67.6966 53.9492 68.0091 54.1738 68.263 54.4629C68.5169 54.752 68.7103 55.0938 68.8431 55.4883C68.9759 55.8789 69.0423 56.3066 69.0423 56.7715V56.8945C69.0423 57.3555 68.9759 57.7832 68.8431 58.1777C68.7103 58.5684 68.5169 58.9102 68.263 59.2031C68.0091 59.4922 67.6986 59.7168 67.3314 59.877C66.9642 60.0371 66.5443 60.1172 66.0716 60.1172C65.6029 60.1172 65.1829 60.0371 64.8118 59.877C64.4408 59.7168 64.1283 59.4922 63.8743 59.2031C63.6204 58.9102 63.4271 58.5684 63.2943 58.1777C63.1615 57.7832 63.0951 57.3555 63.0951 56.8945ZM64.6419 56.7715V56.8945C64.6419 57.1719 64.6693 57.4316 64.724 57.6738C64.7786 57.916 64.8626 58.1289 64.9759 58.3125C65.0892 58.4961 65.2357 58.6406 65.4154 58.7461C65.599 58.8477 65.8177 58.8984 66.0716 58.8984C66.3216 58.8984 66.5365 58.8477 66.7161 58.7461C66.8958 58.6406 67.0423 58.4961 67.1556 58.3125C67.2728 58.1289 67.3587 57.916 67.4134 57.6738C67.4681 57.4316 67.4954 57.1719 67.4954 56.8945V56.7715C67.4954 56.498 67.4681 56.2422 67.4134 56.0039C67.3587 55.7617 67.2728 55.5488 67.1556 55.3652C67.0423 55.1777 66.8939 55.0312 66.7103 54.9258C66.5306 54.8164 66.3138 54.7617 66.0599 54.7617C65.8099 54.7617 65.5951 54.8164 65.4154 54.9258C65.2357 55.0312 65.0892 55.1777 64.9759 55.3652C64.8626 55.5488 64.7786 55.7617 64.724 56.0039C64.6693 56.2422 64.6419 56.498 64.6419 56.7715ZM74.1595 58.6523V55.7285C74.1595 55.5137 74.1224 55.3281 74.0482 55.1719C73.974 55.0156 73.8607 54.8945 73.7083 54.8086C73.556 54.7227 73.3626 54.6797 73.1283 54.6797C72.9212 54.6797 72.7396 54.7148 72.5833 54.7852C72.431 54.8555 72.3138 54.9551 72.2318 55.084C72.1497 55.209 72.1087 55.3535 72.1087 55.5176H70.556C70.556 55.2559 70.6185 55.0078 70.7435 54.7734C70.8685 54.5352 71.0462 54.3242 71.2767 54.1406C71.5111 53.9531 71.7904 53.8066 72.1146 53.7012C72.4427 53.5957 72.8099 53.543 73.2161 53.543C73.6966 53.543 74.1243 53.625 74.4993 53.7891C74.8783 53.9492 75.1751 54.1914 75.39 54.5156C75.6087 54.8398 75.7181 55.248 75.7181 55.7402V58.5059C75.7181 58.8223 75.7376 59.0938 75.7767 59.3203C75.8197 59.543 75.8822 59.7363 75.9642 59.9004V60H74.388C74.3138 59.8398 74.2572 59.6367 74.2181 59.3906C74.179 59.1406 74.1595 58.8945 74.1595 58.6523ZM74.3763 56.1387L74.388 57.0586H73.4095C73.1673 57.0586 72.9544 57.084 72.7708 57.1348C72.5872 57.1816 72.4368 57.252 72.3197 57.3457C72.2025 57.4355 72.1146 57.5449 72.056 57.6738C71.9974 57.7988 71.9681 57.9414 71.9681 58.1016C71.9681 58.2578 72.0033 58.3984 72.0736 58.5234C72.1478 58.6484 72.2533 58.748 72.39 58.8223C72.5306 58.8926 72.6947 58.9277 72.8822 58.9277C73.1556 58.9277 73.3939 58.873 73.597 58.7637C73.8001 58.6504 73.9583 58.5137 74.0716 58.3535C74.1849 58.1934 74.2454 58.041 74.2533 57.8965L74.6986 58.5645C74.6439 58.7246 74.5618 58.8945 74.4525 59.0742C74.3431 59.2539 74.2025 59.4219 74.0306 59.5781C73.8587 59.7344 73.6517 59.8633 73.4095 59.9648C73.1673 60.0664 72.8861 60.1172 72.5658 60.1172C72.1556 60.1172 71.7884 60.0352 71.4642 59.8711C71.14 59.707 70.8841 59.4824 70.6966 59.1973C70.5091 58.9121 70.4154 58.5879 70.4154 58.2246C70.4154 57.8887 70.4779 57.5918 70.6029 57.334C70.7279 57.0762 70.9134 56.8594 71.1595 56.6836C71.4056 56.5039 71.7103 56.3691 72.0736 56.2793C72.4408 56.1855 72.8607 56.1387 73.3333 56.1387H74.3763ZM79.1595 54.9551V60H77.6126V53.6602H79.0775L79.1595 54.9551ZM81.0872 53.6191L81.0638 55.0605C80.9779 55.0449 80.8802 55.0332 80.7708 55.0254C80.6654 55.0176 80.5658 55.0137 80.472 55.0137C80.2337 55.0137 80.0247 55.0469 79.845 55.1133C79.6654 55.1758 79.515 55.2676 79.3939 55.3887C79.2767 55.5098 79.1868 55.6582 79.1243 55.834C79.0618 56.0059 79.0267 56.2012 79.0189 56.4199L78.6849 56.3789C78.6849 55.9766 78.7259 55.6035 78.8079 55.2598C78.89 54.916 79.0091 54.6152 79.1654 54.3574C79.3216 54.0996 79.5169 53.9004 79.7513 53.7598C79.9896 53.6152 80.263 53.543 80.5716 53.543C80.6575 53.543 80.7493 53.5508 80.847 53.5664C80.9486 53.5781 81.0286 53.5957 81.0872 53.6191ZM86.1224 58.6523V51H87.681V60H86.2747L86.1224 58.6523ZM82.0501 56.9062V56.7832C82.0501 56.2988 82.1048 55.8594 82.2142 55.4648C82.3275 55.0664 82.4915 54.7246 82.7064 54.4395C82.9212 54.1543 83.181 53.9336 83.4857 53.7773C83.7943 53.6211 84.1439 53.543 84.5345 53.543C84.9134 53.543 85.2435 53.6191 85.5247 53.7715C85.8099 53.9238 86.0521 54.1406 86.2513 54.4219C86.4544 54.7031 86.6165 55.0371 86.7376 55.4238C86.8587 55.8066 86.9466 56.2285 87.0013 56.6895V57.0234C86.9466 57.4727 86.8587 57.8848 86.7376 58.2598C86.6165 58.6348 86.4544 58.9629 86.2513 59.2441C86.0521 59.5215 85.8099 59.7363 85.5247 59.8887C85.2396 60.041 84.9056 60.1172 84.5228 60.1172C84.1361 60.1172 83.7884 60.0371 83.4798 59.877C83.1751 59.7168 82.9154 59.4922 82.7005 59.2031C82.4896 58.9141 82.3275 58.5742 82.2142 58.1836C82.1048 57.793 82.0501 57.3672 82.0501 56.9062ZM83.6029 56.7832V56.9062C83.6029 57.1797 83.6263 57.4355 83.6732 57.6738C83.72 57.9121 83.7962 58.123 83.9017 58.3066C84.0072 58.4863 84.1419 58.627 84.306 58.7285C84.474 58.8301 84.6771 58.8809 84.9154 58.8809C85.22 58.8809 85.47 58.8145 85.6654 58.6816C85.8646 58.5449 86.0189 58.3594 86.1283 58.125C86.2376 57.8867 86.3079 57.6191 86.3392 57.3223V56.4023C86.3236 56.168 86.2825 55.9512 86.2161 55.752C86.1536 55.5527 86.0638 55.3809 85.9466 55.2363C85.8333 55.0918 85.6927 54.9785 85.5247 54.8965C85.3568 54.8145 85.1575 54.7734 84.9271 54.7734C84.6888 54.7734 84.4857 54.8262 84.3177 54.9316C84.1497 55.0332 84.013 55.1758 83.9075 55.3594C83.8021 55.543 83.724 55.7559 83.6732 55.998C83.6263 56.2402 83.6029 56.502 83.6029 56.7832Z" fill="currentColor"/>
<defs>
<clipPath id="clip0_54_3770">
<rect x="25.3333" y="12" width="64" height="32" rx="16" fill="white"/>
</clipPath>
</defs>
</svg>
