<svg width="17" height="17" viewBox="0 0 17 17" fill="none" xmlns="http://www.w3.org/2000/svg">
<path d="M0.0742188 15.6293C0.0742188 16.0365 0.401491 16.3638 0.808764 16.3638H10.256C10.6633 16.3638 10.9906 16.0365 10.9906 15.6293V14.9165H0.0742188V15.6293ZM5.52876 6.182C2.80149 6.182 0.0742188 7.64382 0.0742188 10.5529H10.9833C10.9833 7.64382 8.25604 6.182 5.52876 6.182ZM1.97967 9.09837C2.78695 7.97109 4.50331 7.63655 5.52876 7.63655C6.55422 7.63655 8.27058 7.97109 9.07786 9.09837H1.97967ZM0.0742188 12.0075H10.9833V13.462H0.0742188V12.0075ZM12.4379 3.28018V0.371094H10.9833V3.28018H7.34695L7.51422 4.73473H14.4669L13.4488 14.9165H12.4379V16.3711H13.6888C14.2997 16.3711 14.8015 15.8984 14.8742 15.302L16.0742 3.28018H12.4379Z" fill="#9B9B9B"/>
</svg>
