<svg width="25" height="25" viewBox="0 0 25 25" fill="none" xmlns="http://www.w3.org/2000/svg">
<path d="M9.60524 22.5L9.20524 19.3C8.98857 19.2167 8.7844 19.1167 8.59274 19C8.40107 18.8833 8.21357 18.7583 8.03024 18.625L5.05524 19.875L2.30524 15.125L4.88024 13.175C4.86357 13.0583 4.85524 12.9458 4.85524 12.8375V12.1625C4.85524 12.0542 4.86357 11.9417 4.88024 11.825L2.30524 9.875L5.05524 5.125L8.03024 6.375C8.21357 6.24167 8.40524 6.11667 8.60524 6C8.80524 5.88333 9.00524 5.78333 9.20524 5.7L9.60524 2.5H15.1052L15.5052 5.7C15.7219 5.78333 15.9261 5.88333 16.1177 6C16.3094 6.11667 16.4969 6.24167 16.6802 6.375L19.6552 5.125L22.4052 9.875L19.8302 11.825C19.8469 11.9417 19.8552 12.0542 19.8552 12.1625V12.8375C19.8552 12.9458 19.8386 13.0583 19.8052 13.175L22.3802 15.125L19.6302 19.875L16.6802 18.625C16.4969 18.7583 16.3052 18.8833 16.1052 19C15.9052 19.1167 15.7052 19.2167 15.5052 19.3L15.1052 22.5H9.60524ZM11.3552 20.5H13.3302L13.6802 17.85C14.1969 17.7167 14.6761 17.5208 15.1177 17.2625C15.5594 17.0042 15.9636 16.6917 16.3302 16.325L18.8052 17.35L19.7802 15.65L17.6302 14.025C17.7136 13.7917 17.7719 13.5458 17.8052 13.2875C17.8386 13.0292 17.8552 12.7667 17.8552 12.5C17.8552 12.2333 17.8386 11.9708 17.8052 11.7125C17.7719 11.4542 17.7136 11.2083 17.6302 10.975L19.7802 9.35L18.8052 7.65L16.3302 8.7C15.9636 8.31667 15.5594 7.99583 15.1177 7.7375C14.6761 7.47917 14.1969 7.28333 13.6802 7.15L13.3552 4.5H11.3802L11.0302 7.15C10.5136 7.28333 10.0344 7.47917 9.59274 7.7375C9.15107 7.99583 8.7469 8.30833 8.38024 8.675L5.90524 7.65L4.93024 9.35L7.08024 10.95C6.9969 11.2 6.93857 11.45 6.90524 11.7C6.8719 11.95 6.85524 12.2167 6.85524 12.5C6.85524 12.7667 6.8719 13.025 6.90524 13.275C6.93857 13.525 6.9969 13.775 7.08024 14.025L4.93024 15.65L5.90524 17.35L8.38024 16.3C8.7469 16.6833 9.15107 17.0042 9.59274 17.2625C10.0344 17.5208 10.5136 17.7167 11.0302 17.85L11.3552 20.5ZM12.4052 16C13.3719 16 14.1969 15.6583 14.8802 14.975C15.5636 14.2917 15.9052 13.4667 15.9052 12.5C15.9052 11.5333 15.5636 10.7083 14.8802 10.025C14.1969 9.34167 13.3719 9 12.4052 9C11.4219 9 10.5927 9.34167 9.91774 10.025C9.24274 10.7083 8.90524 11.5333 8.90524 12.5C8.90524 13.4667 9.24274 14.2917 9.91774 14.975C10.5927 15.6583 11.4219 16 12.4052 16Z" fill="#49454F"/>
</svg>
