<svg width="115" height="80" viewBox="0 0 115 80" fill="none" xmlns="http://www.w3.org/2000/svg">
<path d="M57.6448 18L60.7348 24.26L67.6448 25.27L62.6448 30.14L63.8248 37.02L57.6448 33.77L51.4648 37.02L52.6448 30.14L47.6448 25.27L54.5548 24.26L57.6448 18Z" stroke="currentColor" stroke-width="2" stroke-linecap="round" stroke-linejoin="round"/>
<path d="M35.6135 51.4688H36.926L39.3928 58.0488L41.8538 51.4688H43.1663L39.9084 60H38.8655L35.6135 51.4688ZM35.0159 51.4688H36.2639L36.4807 57.1641V60H35.0159V51.4688ZM42.5159 51.4688H43.7698V60H42.2991V57.1641L42.5159 51.4688ZM47.7151 59.3086L49.4377 53.6602H50.9495L48.4065 60.9668C48.3479 61.123 48.2717 61.293 48.178 61.4766C48.0842 61.6602 47.9612 61.834 47.8088 61.998C47.6604 62.166 47.4748 62.3008 47.2522 62.4023C47.0295 62.5078 46.76 62.5605 46.4436 62.5605C46.3186 62.5605 46.1975 62.5488 46.0803 62.5254C45.967 62.5059 45.8596 62.4844 45.758 62.4609L45.7522 61.3828C45.7913 61.3867 45.8381 61.3906 45.8928 61.3945C45.9514 61.3984 45.9983 61.4004 46.0334 61.4004C46.2678 61.4004 46.4631 61.3711 46.6194 61.3125C46.7756 61.2578 46.9026 61.168 47.0002 61.043C47.1018 60.918 47.1877 60.75 47.258 60.5391L47.7151 59.3086ZM46.7424 53.6602L48.2483 58.4062L48.5002 59.8945L47.5217 60.1465L45.219 53.6602H46.7424ZM57.6565 60H56.2444V53.0508C56.2444 52.5781 56.3323 52.1816 56.508 51.8613C56.6877 51.5371 56.9436 51.293 57.2756 51.1289C57.6077 50.9609 58.0002 50.877 58.4534 50.877C58.594 50.877 58.7327 50.8867 58.8694 50.9062C59.0061 50.9219 59.1389 50.9473 59.2678 50.9824L59.2327 52.0723C59.1545 52.0527 59.0686 52.0391 58.9748 52.0312C58.885 52.0234 58.7873 52.0195 58.6819 52.0195C58.467 52.0195 58.2815 52.0605 58.1252 52.1426C57.9729 52.2207 57.8557 52.3359 57.7737 52.4883C57.6955 52.6406 57.6565 52.8281 57.6565 53.0508V60ZM58.9631 53.6602V54.6914H55.2717V53.6602H58.9631ZM60.219 56.9004V56.7656C60.219 56.3086 60.2854 55.8848 60.4182 55.4941C60.551 55.0996 60.7424 54.7578 60.9924 54.4688C61.2463 54.1758 61.5549 53.9492 61.9182 53.7891C62.2854 53.625 62.6995 53.543 63.1604 53.543C63.6252 53.543 64.0393 53.625 64.4026 53.7891C64.7698 53.9492 65.0803 54.1758 65.3342 54.4688C65.5881 54.7578 65.7815 55.0996 65.9143 55.4941C66.0471 55.8848 66.1135 56.3086 66.1135 56.7656V56.9004C66.1135 57.3574 66.0471 57.7812 65.9143 58.1719C65.7815 58.5625 65.5881 58.9043 65.3342 59.1973C65.0803 59.4863 64.7717 59.7129 64.4084 59.877C64.0452 60.0371 63.633 60.1172 63.1721 60.1172C62.7073 60.1172 62.2913 60.0371 61.9241 59.877C61.5608 59.7129 61.2522 59.4863 60.9983 59.1973C60.7444 58.9043 60.551 58.5625 60.4182 58.1719C60.2854 57.7812 60.219 57.3574 60.219 56.9004ZM61.6311 56.7656V56.9004C61.6311 57.1855 61.6604 57.4551 61.719 57.709C61.7776 57.9629 61.8694 58.1855 61.9944 58.377C62.1194 58.5684 62.2795 58.7188 62.4748 58.8281C62.6702 58.9375 62.9026 58.9922 63.1721 58.9922C63.4338 58.9922 63.6604 58.9375 63.8518 58.8281C64.0471 58.7188 64.2073 58.5684 64.3323 58.377C64.4573 58.1855 64.5491 57.9629 64.6077 57.709C64.6702 57.4551 64.7014 57.1855 64.7014 56.9004V56.7656C64.7014 56.4844 64.6702 56.2188 64.6077 55.9688C64.5491 55.7148 64.4553 55.4902 64.3264 55.2949C64.2014 55.0996 64.0413 54.9473 63.8459 54.8379C63.6545 54.7246 63.426 54.668 63.1604 54.668C62.8948 54.668 62.6643 54.7246 62.469 54.8379C62.2776 54.9473 62.1194 55.0996 61.9944 55.2949C61.8694 55.4902 61.7776 55.7148 61.719 55.9688C61.6604 56.2188 61.6311 56.4844 61.6311 56.7656ZM67.5276 56.9004V56.7656C67.5276 56.3086 67.594 55.8848 67.7268 55.4941C67.8596 55.0996 68.051 54.7578 68.301 54.4688C68.5549 54.1758 68.8635 53.9492 69.2268 53.7891C69.594 53.625 70.008 53.543 70.469 53.543C70.9338 53.543 71.3479 53.625 71.7112 53.7891C72.0784 53.9492 72.3889 54.1758 72.6428 54.4688C72.8967 54.7578 73.0901 55.0996 73.2229 55.4941C73.3557 55.8848 73.4221 56.3086 73.4221 56.7656V56.9004C73.4221 57.3574 73.3557 57.7812 73.2229 58.1719C73.0901 58.5625 72.8967 58.9043 72.6428 59.1973C72.3889 59.4863 72.0803 59.7129 71.717 59.877C71.3538 60.0371 70.9416 60.1172 70.4807 60.1172C70.0159 60.1172 69.5998 60.0371 69.2327 59.877C68.8694 59.7129 68.5608 59.4863 68.3069 59.1973C68.053 58.9043 67.8596 58.5625 67.7268 58.1719C67.594 57.7812 67.5276 57.3574 67.5276 56.9004ZM68.9397 56.7656V56.9004C68.9397 57.1855 68.969 57.4551 69.0276 57.709C69.0862 57.9629 69.178 58.1855 69.303 58.377C69.428 58.5684 69.5881 58.7188 69.7834 58.8281C69.9788 58.9375 70.2112 58.9922 70.4807 58.9922C70.7424 58.9922 70.969 58.9375 71.1604 58.8281C71.3557 58.7188 71.5159 58.5684 71.6409 58.377C71.7659 58.1855 71.8577 57.9629 71.9163 57.709C71.9788 57.4551 72.01 57.1855 72.01 56.9004V56.7656C72.01 56.4844 71.9788 56.2188 71.9163 55.9688C71.8577 55.7148 71.7639 55.4902 71.635 55.2949C71.51 55.0996 71.3498 54.9473 71.1545 54.8379C70.9631 54.7246 70.7346 54.668 70.469 54.668C70.2034 54.668 69.9729 54.7246 69.7776 54.8379C69.5862 54.9473 69.428 55.0996 69.303 55.2949C69.178 55.4902 69.0862 55.7148 69.0276 55.9688C68.969 56.2188 68.9397 56.4844 68.9397 56.7656ZM78.9729 58.6875V51H80.3909V60H79.1077L78.9729 58.6875ZM74.8479 56.9004V56.7773C74.8479 56.2969 74.9045 55.8594 75.0178 55.4648C75.1311 55.0664 75.2952 54.7246 75.51 54.4395C75.7248 54.1504 75.9866 53.9297 76.2952 53.7773C76.6038 53.6211 76.9514 53.543 77.3381 53.543C77.7209 53.543 78.0569 53.6172 78.3459 53.7656C78.635 53.9141 78.8811 54.127 79.0842 54.4043C79.2873 54.6777 79.4495 55.0059 79.5705 55.3887C79.6916 55.7676 79.7776 56.1895 79.8284 56.6543V57.0469C79.7776 57.5 79.6916 57.9141 79.5705 58.2891C79.4495 58.6641 79.2873 58.9883 79.0842 59.2617C78.8811 59.5352 78.633 59.7461 78.3401 59.8945C78.051 60.043 77.7131 60.1172 77.3264 60.1172C76.9436 60.1172 76.5979 60.0371 76.2893 59.877C75.9846 59.7168 75.7248 59.4922 75.51 59.2031C75.2952 58.9141 75.1311 58.5742 75.0178 58.1836C74.9045 57.7891 74.8479 57.3613 74.8479 56.9004ZM76.26 56.7773V56.9004C76.26 57.1895 76.2854 57.459 76.3362 57.709C76.3909 57.959 76.4748 58.1797 76.5881 58.3711C76.7014 58.5586 76.8479 58.707 77.0276 58.8164C77.2112 58.9219 77.4299 58.9746 77.6838 58.9746C78.0041 58.9746 78.2678 58.9043 78.4748 58.7637C78.6819 58.623 78.844 58.4336 78.9612 58.1953C79.0823 57.9531 79.1643 57.6836 79.2073 57.3867V56.3262C79.1838 56.0957 79.135 55.8809 79.0608 55.6816C78.9905 55.4824 78.8948 55.3086 78.7737 55.1602C78.6526 55.0078 78.5022 54.8906 78.3225 54.8086C78.1467 54.7227 77.9377 54.6797 77.6955 54.6797C77.4377 54.6797 77.219 54.7344 77.0393 54.8438C76.8596 54.9531 76.7112 55.1035 76.594 55.2949C76.4807 55.4863 76.3967 55.709 76.342 55.9629C76.2873 56.2168 76.26 56.4883 76.26 56.7773Z" fill="currentColor"/>
</svg>
