<svg width="25" height="24" viewBox="0 0 25 24" fill="none" xmlns="http://www.w3.org/2000/svg">
<path d="M12.7104 20C12.1604 20 11.6896 19.8042 11.2979 19.4125C10.9063 19.0208 10.7104 18.55 10.7104 18C10.7104 17.45 10.9063 16.9792 11.2979 16.5875C11.6896 16.1958 12.1604 16 12.7104 16C13.2604 16 13.7313 16.1958 14.1229 16.5875C14.5146 16.9792 14.7104 17.45 14.7104 18C14.7104 18.55 14.5146 19.0208 14.1229 19.4125C13.7313 19.8042 13.2604 20 12.7104 20ZM12.7104 14C12.1604 14 11.6896 13.8042 11.2979 13.4125C10.9063 13.0208 10.7104 12.55 10.7104 12C10.7104 11.45 10.9063 10.9792 11.2979 10.5875C11.6896 10.1958 12.1604 10 12.7104 10C13.2604 10 13.7313 10.1958 14.1229 10.5875C14.5146 10.9792 14.7104 11.45 14.7104 12C14.7104 12.55 14.5146 13.0208 14.1229 13.4125C13.7313 13.8042 13.2604 14 12.7104 14ZM12.7104 8C12.1604 8 11.6896 7.80417 11.2979 7.4125C10.9063 7.02083 10.7104 6.55 10.7104 6C10.7104 5.45 10.9063 4.97917 11.2979 4.5875C11.6896 4.19583 12.1604 4 12.7104 4C13.2604 4 13.7313 4.19583 14.1229 4.5875C14.5146 4.97917 14.7104 5.45 14.7104 6C14.7104 6.55 14.5146 7.02083 14.1229 7.4125C13.7313 7.80417 13.2604 8 12.7104 8Z" fill="#49454F"/>
</svg>
