<svg width="116" height="80" viewBox="0 0 116 80" fill="none" xmlns="http://www.w3.org/2000/svg">
<path d="M68.3114 28H64.3114L61.3114 37L55.3114 19L52.3114 28H48.3114" stroke="currentColor" stroke-width="2" stroke-linecap="round" stroke-linejoin="round"/>
<path d="M48.7157 57.8027C48.7157 57.627 48.6884 57.4707 48.6337 57.334C48.5829 57.1973 48.4911 57.0723 48.3583 56.959C48.2255 56.8457 48.038 56.7363 47.7958 56.6309C47.5575 56.5215 47.2528 56.4102 46.8817 56.2969C46.4755 56.1719 46.1005 56.0332 45.7567 55.8809C45.4169 55.7246 45.12 55.5449 44.8661 55.3418C44.6122 55.1348 44.4149 54.8984 44.2743 54.6328C44.1337 54.3633 44.0634 54.0527 44.0634 53.7012C44.0634 53.3535 44.1356 53.0371 44.2802 52.752C44.4286 52.4668 44.6376 52.2207 44.9071 52.0137C45.1806 51.8027 45.5028 51.6406 45.8739 51.5273C46.245 51.4102 46.6552 51.3516 47.1044 51.3516C47.7372 51.3516 48.2821 51.4688 48.7392 51.7031C49.2001 51.9375 49.5536 52.252 49.7997 52.6465C50.0497 53.041 50.1747 53.4766 50.1747 53.9531H48.7157C48.7157 53.6719 48.6552 53.4238 48.5341 53.209C48.4169 52.9902 48.2372 52.8184 47.995 52.6934C47.7567 52.5684 47.454 52.5059 47.0868 52.5059C46.7392 52.5059 46.4501 52.5586 46.2196 52.6641C45.9892 52.7695 45.8173 52.9121 45.704 53.0918C45.5907 53.2715 45.5341 53.4746 45.5341 53.7012C45.5341 53.8613 45.5712 54.0078 45.6454 54.1406C45.7196 54.2695 45.8329 54.3906 45.9853 54.5039C46.1376 54.6133 46.329 54.7168 46.5595 54.8145C46.7899 54.9121 47.0614 55.0059 47.3739 55.0957C47.8466 55.2363 48.2587 55.3926 48.6103 55.5645C48.9618 55.7324 49.2548 55.9238 49.4892 56.1387C49.7235 56.3535 49.8993 56.5977 50.0165 56.8711C50.1337 57.1406 50.1923 57.4473 50.1923 57.791C50.1923 58.1504 50.12 58.4746 49.9755 58.7637C49.831 59.0488 49.6239 59.293 49.3544 59.4961C49.0888 59.6953 48.7685 59.8496 48.3935 59.959C48.0224 60.0645 47.6083 60.1172 47.1513 60.1172C46.7411 60.1172 46.3368 60.0625 45.9384 59.9531C45.5438 59.8438 45.1845 59.6777 44.8603 59.4551C44.536 59.2285 44.2782 58.9473 44.0868 58.6113C43.8954 58.2715 43.7997 57.875 43.7997 57.4219H45.2704C45.2704 57.6992 45.3173 57.9355 45.411 58.1309C45.5087 58.3262 45.6435 58.4863 45.8153 58.6113C45.9872 58.7324 46.1864 58.8223 46.413 58.8809C46.6435 58.9395 46.8895 58.9688 47.1513 58.9688C47.495 58.9688 47.7821 58.9199 48.0126 58.8223C48.247 58.7246 48.4228 58.5879 48.5399 58.4121C48.6571 58.2363 48.7157 58.0332 48.7157 57.8027ZM54.7587 53.6602V54.6914H51.1845V53.6602H54.7587ZM52.2157 52.1074H53.6278V58.248C53.6278 58.4434 53.6552 58.5938 53.7099 58.6992C53.7685 58.8008 53.8485 58.8691 53.9501 58.9043C54.0517 58.9395 54.1708 58.957 54.3075 58.957C54.4052 58.957 54.4989 58.9512 54.5888 58.9395C54.6786 58.9277 54.7509 58.916 54.8056 58.9043L54.8114 59.9824C54.6942 60.0176 54.5575 60.0488 54.4013 60.0762C54.2489 60.1035 54.0731 60.1172 53.8739 60.1172C53.5497 60.1172 53.2626 60.0605 53.0126 59.9473C52.7626 59.8301 52.5673 59.6406 52.4267 59.3789C52.286 59.1172 52.2157 58.7695 52.2157 58.3359V52.1074ZM59.9228 58.7285V55.7051C59.9228 55.4785 59.8817 55.2832 59.7997 55.1191C59.7177 54.9551 59.5927 54.8281 59.4247 54.7383C59.2606 54.6484 59.0536 54.6035 58.8036 54.6035C58.5731 54.6035 58.3739 54.6426 58.206 54.7207C58.038 54.7988 57.9071 54.9043 57.8134 55.0371C57.7196 55.1699 57.6728 55.3203 57.6728 55.4883H56.2665C56.2665 55.2383 56.327 54.9961 56.4481 54.7617C56.5692 54.5273 56.745 54.3184 56.9755 54.1348C57.206 53.9512 57.4813 53.8066 57.8017 53.7012C58.122 53.5957 58.4813 53.543 58.8798 53.543C59.3563 53.543 59.7782 53.623 60.1454 53.7832C60.5165 53.9434 60.8075 54.1855 61.0185 54.5098C61.2333 54.8301 61.3407 55.2324 61.3407 55.7168V58.5352C61.3407 58.8242 61.3603 59.084 61.3993 59.3145C61.4423 59.541 61.5028 59.7383 61.581 59.9062V60H60.1337C60.0673 59.8477 60.0145 59.6543 59.9755 59.4199C59.9403 59.1816 59.9228 58.9512 59.9228 58.7285ZM60.1278 56.1445L60.1395 57.0176H59.1259C58.8642 57.0176 58.6337 57.043 58.4345 57.0938C58.2353 57.1406 58.0692 57.2109 57.9364 57.3047C57.8036 57.3984 57.704 57.5117 57.6376 57.6445C57.5712 57.7773 57.538 57.9277 57.538 58.0957C57.538 58.2637 57.577 58.418 57.6552 58.5586C57.7333 58.6953 57.8466 58.8027 57.995 58.8809C58.1474 58.959 58.331 58.998 58.5458 58.998C58.8349 58.998 59.0868 58.9395 59.3017 58.8223C59.5204 58.7012 59.6923 58.5547 59.8173 58.3828C59.9423 58.207 60.0087 58.041 60.0165 57.8848L60.4735 58.5117C60.4267 58.6719 60.3466 58.8438 60.2333 59.0273C60.12 59.2109 59.9716 59.3867 59.788 59.5547C59.6083 59.7188 59.3915 59.8535 59.1376 59.959C58.8876 60.0645 58.5985 60.1172 58.2704 60.1172C57.8563 60.1172 57.4872 60.0352 57.163 59.8711C56.8388 59.7031 56.5849 59.4785 56.4013 59.1973C56.2177 58.9121 56.1259 58.5898 56.1259 58.2305C56.1259 57.8945 56.1884 57.5977 56.3134 57.3398C56.4423 57.0781 56.6298 56.8594 56.8759 56.6836C57.1259 56.5078 57.4306 56.375 57.7899 56.2852C58.1493 56.1914 58.5595 56.1445 59.0204 56.1445H60.1278ZM66.2235 53.6602V54.6914H62.6493V53.6602H66.2235ZM63.6806 52.1074H65.0927V58.248C65.0927 58.4434 65.12 58.5938 65.1747 58.6992C65.2333 58.8008 65.3134 58.8691 65.4149 58.9043C65.5165 58.9395 65.6356 58.957 65.7724 58.957C65.87 58.957 65.9638 58.9512 66.0536 58.9395C66.1435 58.9277 66.2157 58.916 66.2704 58.9043L66.2763 59.9824C66.1591 60.0176 66.0224 60.0488 65.8661 60.0762C65.7138 60.1035 65.538 60.1172 65.3388 60.1172C65.0145 60.1172 64.7274 60.0605 64.4774 59.9473C64.2274 59.8301 64.0321 59.6406 63.8915 59.3789C63.7509 59.1172 63.6806 58.7695 63.6806 58.3359V52.1074ZM71.37 58.2832C71.37 58.1426 71.3349 58.0156 71.2645 57.9023C71.1942 57.7852 71.0595 57.6797 70.8603 57.5859C70.6649 57.4922 70.3759 57.4062 69.9931 57.3281C69.6571 57.2539 69.3485 57.166 69.0673 57.0645C68.7899 56.959 68.5517 56.832 68.3524 56.6836C68.1532 56.5352 67.9989 56.3594 67.8895 56.1562C67.7802 55.9531 67.7255 55.7188 67.7255 55.4531C67.7255 55.1953 67.7821 54.9512 67.8954 54.7207C68.0087 54.4902 68.1708 54.2871 68.3817 54.1113C68.5927 53.9355 68.8485 53.7969 69.1493 53.6953C69.454 53.5938 69.7938 53.543 70.1688 53.543C70.7001 53.543 71.1552 53.6328 71.5341 53.8125C71.9169 53.9883 72.2099 54.2285 72.413 54.5332C72.6161 54.834 72.7177 55.1738 72.7177 55.5527H71.3056C71.3056 55.3848 71.2626 55.2285 71.1767 55.084C71.0946 54.9355 70.9696 54.8164 70.8017 54.7266C70.6337 54.6328 70.4228 54.5859 70.1688 54.5859C69.9267 54.5859 69.7255 54.625 69.5653 54.7031C69.4091 54.7773 69.2919 54.875 69.2138 54.9961C69.1395 55.1172 69.1024 55.25 69.1024 55.3945C69.1024 55.5 69.122 55.5957 69.161 55.6816C69.204 55.7637 69.2743 55.8398 69.372 55.9102C69.4696 55.9766 69.6024 56.0391 69.7704 56.0977C69.9423 56.1562 70.1571 56.2129 70.4149 56.2676C70.8993 56.3691 71.3153 56.5 71.663 56.6602C72.0145 56.8164 72.2841 57.0195 72.4716 57.2695C72.6591 57.5156 72.7528 57.8281 72.7528 58.207C72.7528 58.4883 72.6923 58.7461 72.5712 58.9805C72.454 59.2109 72.2821 59.4121 72.0556 59.584C71.829 59.752 71.5575 59.8828 71.2411 59.9766C70.9286 60.0703 70.577 60.1172 70.1864 60.1172C69.6122 60.1172 69.1259 60.0156 68.7274 59.8125C68.329 59.6055 68.0263 59.3418 67.8192 59.0215C67.6161 58.6973 67.5145 58.3613 67.5145 58.0137H68.8798C68.8954 58.2754 68.9677 58.4844 69.0966 58.6406C69.2294 58.793 69.3935 58.9043 69.5888 58.9746C69.788 59.041 69.9931 59.0742 70.204 59.0742C70.4579 59.0742 70.6708 59.041 70.8427 58.9746C71.0145 58.9043 71.1454 58.8105 71.2353 58.6934C71.3251 58.5723 71.37 58.4355 71.37 58.2832Z" fill="currentColor"/>
</svg>
